<svg width="320" height="240" viewBox="0 0 320 240" fill="none" xmlns="http://www.w3.org/2000/svg">
<rect width="320" height="240" fill="white"/>
<rect x="7" y="7" width="120" height="34" rx="9" fill="#D9D9D9"/>
<rect x="7" y="48" width="306" height="185" rx="9" fill="#D9D9D9"/>
<path d="M27.3718 29L24.293 18.0909H26.4183L28.3839 26.1076H28.4851L30.5838 18.0909H32.5174L34.6214 26.1129H34.7173L36.6829 18.0909H38.8082L35.7294 29H33.7798L31.5959 21.3455H31.5107L29.3214 29H27.3718ZM42.8272 29.1598C42.0282 29.1598 41.3358 28.984 40.7498 28.6325C40.1639 28.2809 39.7093 27.7891 39.3862 27.157C39.0666 26.5249 38.9068 25.7862 38.9068 24.9411C38.9068 24.0959 39.0666 23.3555 39.3862 22.7198C39.7093 22.0842 40.1639 21.5906 40.7498 21.239C41.3358 20.8874 42.0282 20.7116 42.8272 20.7116C43.6262 20.7116 44.3187 20.8874 44.9047 21.239C45.4906 21.5906 45.9434 22.0842 46.263 22.7198C46.5861 23.3555 46.7477 24.0959 46.7477 24.9411C46.7477 25.7862 46.5861 26.5249 46.263 27.157C45.9434 27.7891 45.4906 28.2809 44.9047 28.6325C44.3187 28.984 43.6262 29.1598 42.8272 29.1598ZM42.8379 27.6151C43.2711 27.6151 43.6333 27.4961 43.9245 27.2582C44.2157 27.0167 44.4324 26.6935 44.5744 26.2887C44.72 25.8839 44.7928 25.4329 44.7928 24.9357C44.7928 24.435 44.72 23.9822 44.5744 23.5774C44.4324 23.169 44.2157 22.8441 43.9245 22.6026C43.6333 22.3612 43.2711 22.2404 42.8379 22.2404C42.394 22.2404 42.0247 22.3612 41.7299 22.6026C41.4387 22.8441 41.2203 23.169 41.0748 23.5774C40.9327 23.9822 40.8617 24.435 40.8617 24.9357C40.8617 25.4329 40.9327 25.8839 41.0748 26.2887C41.2203 26.6935 41.4387 27.0167 41.7299 27.2582C42.0247 27.4961 42.394 27.6151 42.8379 27.6151ZM48.3843 29V20.8182H50.254V22.1818H50.3392C50.4884 21.7095 50.7441 21.3455 51.1063 21.0898C51.472 20.8306 51.8893 20.701 52.358 20.701C52.4646 20.701 52.5835 20.7063 52.7149 20.717C52.8499 20.7241 52.9617 20.7365 53.0505 20.7543V22.5281C52.9688 22.4996 52.8392 22.4748 52.6617 22.4535C52.4877 22.4286 52.319 22.4162 52.1556 22.4162C51.8041 22.4162 51.488 22.4925 51.2075 22.6452C50.9305 22.7944 50.7121 23.0021 50.5523 23.2685C50.3925 23.5348 50.3126 23.842 50.3126 24.19V29H48.3843ZM56.0894 26.4325L56.0841 24.1048H56.393L59.3334 20.8182H61.5866L57.9697 24.8452H57.5702L56.0894 26.4325ZM54.3316 29V18.0909H56.2599V29H54.3316ZM59.4665 29L56.8032 25.2766L58.1029 23.9183L61.773 29H59.4665ZM66.1569 29.1598C65.3366 29.1598 64.6281 28.9893 64.0315 28.6484C63.4385 28.304 62.9822 27.8175 62.6626 27.1889C62.343 26.5568 62.1831 25.8129 62.1831 24.957C62.1831 24.1154 62.343 23.3768 62.6626 22.7411C62.9857 22.1019 63.4367 21.6048 64.0155 21.2496C64.5944 20.891 65.2744 20.7116 66.0557 20.7116C66.5599 20.7116 67.0358 20.7933 67.4832 20.9567C67.9342 21.1165 68.3319 21.3651 68.6764 21.7024C69.0244 22.0398 69.2979 22.4695 69.4967 22.9915C69.6956 23.5099 69.795 24.1278 69.795 24.8452V25.4364H63.0887V24.1367H67.9466C67.9431 23.7674 67.8632 23.4389 67.7069 23.1513C67.5507 22.8601 67.3323 22.631 67.0518 22.4641C66.7748 22.2972 66.4516 22.2138 66.0823 22.2138C65.6881 22.2138 65.3419 22.3097 65.0436 22.5014C64.7453 22.6896 64.5127 22.9382 64.3458 23.2472C64.1824 23.5526 64.099 23.8881 64.0954 24.2539V25.3885C64.0954 25.8643 64.1824 26.2727 64.3564 26.6136C64.5305 26.951 64.7737 27.2102 65.0862 27.3913C65.3987 27.5689 65.7645 27.6577 66.1835 27.6577C66.464 27.6577 66.718 27.6186 66.9452 27.5405C67.1725 27.4588 67.3696 27.3398 67.5365 27.1836C67.7034 27.0273 67.8295 26.8338 67.9147 26.603L69.7151 26.8054C69.6015 27.2812 69.3849 27.6967 69.0653 28.0518C68.7492 28.4034 68.3444 28.6768 67.8508 28.8722C67.3572 29.0639 66.7925 29.1598 66.1569 29.1598ZM71.4263 29V20.8182H73.296V22.1818H73.3812C73.5304 21.7095 73.786 21.3455 74.1483 21.0898C74.514 20.8306 74.9313 20.701 75.4 20.701C75.5066 20.701 75.6255 20.7063 75.7569 20.717C75.8919 20.7241 76.0037 20.7365 76.0925 20.7543V22.5281C76.0108 22.4996 75.8812 22.4748 75.7037 22.4535C75.5297 22.4286 75.361 22.4162 75.1976 22.4162C74.8461 22.4162 74.53 22.4925 74.2495 22.6452C73.9725 22.7944 73.7541 23.0021 73.5943 23.2685C73.4345 23.5348 73.3546 23.842 73.3546 24.19V29H71.4263ZM83.1557 18.0909V29H81.1795V18.0909H83.1557ZM87.1388 24.206V29H85.2105V20.8182H87.0535V22.2085H87.1494C87.3376 21.7504 87.6377 21.3864 88.0496 21.1165C88.4651 20.8466 88.9782 20.7116 89.589 20.7116C90.1537 20.7116 90.6455 20.8324 91.0645 21.0739C91.4871 21.3153 91.8138 21.6651 92.0447 22.1232C92.279 22.5813 92.3944 23.1371 92.3909 23.7905V29H90.4626V24.0888C90.4626 23.5419 90.3206 23.114 90.0365 22.805C89.7559 22.4961 89.3671 22.3416 88.8699 22.3416C88.5326 22.3416 88.2325 22.4162 87.9697 22.5653C87.7105 22.7109 87.5063 22.9222 87.3572 23.1992C87.2116 23.4762 87.1388 23.8118 87.1388 24.206ZM98.4953 20.8182V22.3097H93.6586V20.8182H98.4953ZM94.8678 29V20.0458C94.8678 19.4954 94.9814 19.0373 95.2087 18.6715C95.4395 18.3058 95.7485 18.0323 96.1356 17.8512C96.5226 17.6701 96.9523 17.5795 97.4246 17.5795C97.7584 17.5795 98.055 17.6062 98.3142 17.6594C98.5734 17.7127 98.7652 17.7607 98.8895 17.8033L98.5059 19.2947C98.4243 19.2699 98.3213 19.245 98.197 19.2202C98.0727 19.1918 97.9342 19.1776 97.7815 19.1776C97.4229 19.1776 97.1689 19.2646 97.0198 19.4386C96.8742 19.609 96.8014 19.854 96.8014 20.1737V29H94.8678ZM103.267 29.1598C102.468 29.1598 101.775 28.984 101.189 28.6325C100.603 28.2809 100.149 27.7891 99.8256 27.157C99.506 26.5249 99.3462 25.7862 99.3462 24.9411C99.3462 24.0959 99.506 23.3555 99.8256 22.7198C100.149 22.0842 100.603 21.5906 101.189 21.239C101.775 20.8874 102.468 20.7116 103.267 20.7116C104.066 20.7116 104.758 20.8874 105.344 21.239C105.93 21.5906 106.383 22.0842 106.702 22.7198C107.026 23.3555 107.187 24.0959 107.187 24.9411C107.187 25.7862 107.026 26.5249 106.702 27.157C106.383 27.7891 105.93 28.2809 105.344 28.6325C104.758 28.984 104.066 29.1598 103.267 29.1598ZM103.277 27.6151C103.711 27.6151 104.073 27.4961 104.364 27.2582C104.655 27.0167 104.872 26.6935 105.014 26.2887C105.159 25.8839 105.232 25.4329 105.232 24.9357C105.232 24.435 105.159 23.9822 105.014 23.5774C104.872 23.169 104.655 22.8441 104.364 22.6026C104.073 22.3612 103.711 22.2404 103.277 22.2404C102.833 22.2404 102.464 22.3612 102.169 22.6026C101.878 22.8441 101.66 23.169 101.514 23.5774C101.372 23.9822 101.301 24.435 101.301 24.9357C101.301 25.4329 101.372 25.8839 101.514 26.2887C101.66 26.6935 101.878 27.0167 102.169 27.2582C102.464 27.4961 102.833 27.6151 103.277 27.6151Z" fill="black"/>
</svg>
