<svg width="53" height="53" viewBox="0 0 53 53" fill="none" xmlns="http://www.w3.org/2000/svg">
<path d="M8.28125 21.9453V46.375C8.28125 46.8143 8.45575 47.2355 8.76635 47.5461C9.07696 47.8568 9.49824 48.0313 9.9375 48.0313H17.875C18.9796 48.0313 19.875 47.1358 19.875 46.0313V33.9531C19.875 33.2942 20.1367 32.6623 20.6027 32.1964C21.0686 31.7305 21.7005 31.4688 22.3594 31.4688H30.6406C31.2995 31.4688 31.9314 31.7305 32.3973 32.1964C32.8633 32.6623 33.125 33.2942 33.125 33.9531V46.0313C33.125 47.1358 34.0204 48.0313 35.125 48.0313H43.0625C43.5018 48.0313 43.923 47.8568 44.2336 47.5461C44.5443 47.2355 44.7188 46.8143 44.7188 46.375V21.9453" stroke="black" stroke-opacity="0.93" stroke-width="4" stroke-linecap="round" stroke-linejoin="round"/>
<path d="M49.6875 26.1786L27.6273 5.06138C27.1097 4.51482 25.8996 4.5086 25.3727 5.06138L3.3125 26.1786" stroke="black" stroke-opacity="0.93" stroke-width="4" stroke-linecap="round" stroke-linejoin="round"/>
</svg>
