<svg width="45" height="45" viewBox="0 0 45 45" fill="none" xmlns="http://www.w3.org/2000/svg">
<path d="M40.4267 3.32677C40.5469 3.42734 40.6661 3.52932 40.7842 3.63241C40.8735 3.70365 40.9629 3.7749 41.0549 3.8483C41.9407 4.58775 42.4984 5.61711 42.9064 6.67729C42.9465 6.77994 42.9866 6.88258 43.0279 6.98834C43.6293 8.8345 43.3903 10.8965 42.5546 12.6171C42.2678 13.1789 41.9359 13.6735 41.5224 14.1511C41.4673 14.2242 41.4122 14.2974 41.3555 14.3728C40.5989 15.2696 39.5607 15.8623 38.4775 16.2733C38.3749 16.3132 38.2724 16.3532 38.1668 16.3944C36.325 16.9958 34.2622 16.7576 32.5434 15.9273C31.642 15.4663 30.8271 14.8369 30.1733 14.0588C30.1733 13.9979 30.1733 13.937 30.1733 13.8743C30.104 13.909 30.0347 13.9437 29.9634 13.9795C28.2803 14.8231 26.597 15.6662 24.9135 16.5089C24.0994 16.9165 23.2853 17.3242 22.4714 17.7321C21.7623 18.0876 21.053 18.4429 20.3435 18.7978C19.9677 18.9859 19.5919 19.174 19.2163 19.3625C18.8631 19.5397 18.5097 19.7166 18.1562 19.8932C18.0262 19.9583 17.8962 20.0235 17.7663 20.0888C17.5896 20.1776 17.4126 20.266 17.2356 20.3542C17.0868 20.4287 17.0868 20.4287 16.9351 20.5047C16.702 20.6099 16.702 20.6099 16.5174 20.6099C16.5474 20.7241 16.5774 20.8383 16.6082 20.9559C16.726 21.4875 16.7291 22.0051 16.725 22.5476C16.7257 22.6425 16.7265 22.7374 16.7272 22.8352C16.7257 23.4136 16.6643 23.9256 16.5174 24.4852C16.5971 24.5101 16.6769 24.535 16.759 24.5606C17.0657 24.6679 17.3446 24.7952 17.635 24.9407C17.689 24.9676 17.743 24.9945 17.7986 25.0222C17.9781 25.1118 18.1574 25.202 18.3366 25.2921C18.4658 25.3567 18.5949 25.4213 18.7241 25.4858C19.0739 25.6606 19.4234 25.836 19.7729 26.0113C20.1385 26.1947 20.5043 26.3777 20.8701 26.5607C21.5624 26.9071 22.2544 27.2539 22.9464 27.6008C23.7344 27.9958 24.5226 28.3904 25.3108 28.785C26.9319 29.5965 28.5526 30.4085 30.1733 31.2209C30.2005 31.1639 30.2278 31.1069 30.2559 31.0481C30.9036 29.8004 32.5905 29.051 33.864 28.6373C35.8045 28.068 37.8737 28.431 39.6207 29.3676C40.0444 29.6053 40.4186 29.8869 40.7842 30.2059C40.8735 30.2772 40.9629 30.3484 41.0549 30.4218C41.9407 31.1613 42.4984 32.1906 42.9064 33.2508C42.9465 33.3534 42.9866 33.4561 43.0279 33.5618C43.6293 35.4079 43.3904 37.4701 42.5546 39.1906C42.2677 39.7521 41.9377 40.2486 41.5224 40.7246C41.4511 40.8139 41.3799 40.9032 41.3065 40.9953C40.567 41.8811 39.5377 42.4388 38.4775 42.8468C38.3748 42.8869 38.2722 42.927 38.1664 42.9683C36.3203 43.5696 34.2582 43.3308 32.5377 42.495C31.9762 42.2081 31.4797 41.8781 31.0037 41.4628C30.9144 41.3915 30.825 41.3203 30.733 41.2469C29.8477 40.5078 29.2885 39.478 28.8815 38.4179C28.8414 38.3142 28.8013 38.2104 28.76 38.1036C28.3352 36.789 28.3497 35.2273 28.6969 33.8967C28.6172 33.8718 28.5375 33.847 28.4554 33.8213C28.1487 33.714 27.8698 33.5867 27.5793 33.4412C27.5254 33.4143 27.4714 33.3874 27.4158 33.3597C27.2363 33.2701 27.057 33.18 26.8777 33.0898C26.7486 33.0252 26.6194 32.9607 26.4902 32.8961C26.1405 32.7213 25.791 32.546 25.4415 32.3706C25.0759 32.1872 24.7101 32.0042 24.3443 31.8212C23.652 31.4748 22.96 31.128 22.268 30.7811C21.48 30.3861 20.6918 29.9915 19.9036 29.5969C18.2825 28.7854 16.6617 27.9734 15.0411 27.161C15.0138 27.218 14.9866 27.2751 14.9585 27.3338C14.3108 28.5815 12.6239 29.3309 11.3504 29.7446C9.40991 30.314 7.34067 29.9509 5.59362 29.0143C5.16997 28.7766 4.79574 28.495 4.43017 28.176C4.34084 28.1047 4.25152 28.0335 4.15949 27.9601C3.27365 27.2207 2.71595 26.1913 2.30798 25.1311C2.24785 24.9771 2.24785 24.9771 2.18651 24.8201C1.58512 22.974 1.82397 20.9118 2.65975 19.1913C2.94671 18.6298 3.27669 18.1333 3.69201 17.6573C3.76326 17.568 3.8345 17.4787 3.90791 17.3866C4.64735 16.5008 5.67672 15.9431 6.7369 15.5351C6.83954 15.495 6.94219 15.455 7.04794 15.4137C8.89031 14.8135 10.9518 15.0505 12.671 15.8811C13.5723 16.3421 14.3873 16.9715 15.0411 17.7496C15.0411 17.8105 15.0411 17.8714 15.0411 17.9341C15.1104 17.8994 15.1796 17.8647 15.251 17.8289C16.9341 16.9854 18.6174 16.1422 20.3009 15.2995C21.115 14.8919 21.929 14.4843 22.7429 14.0763C23.4521 13.7208 24.1614 13.3655 24.8708 13.0106C25.2467 12.8225 25.6224 12.6344 25.9981 12.4459C26.3513 12.2687 26.7047 12.0918 27.0582 11.9152C27.1882 11.8501 27.3182 11.785 27.4481 11.7197C27.6248 11.6308 27.8018 11.5424 27.9788 11.4542C28.078 11.4045 28.1771 11.3548 28.2793 11.3037C28.5124 11.1985 28.5124 11.1985 28.6969 11.1985C28.6672 11.0845 28.6375 10.9706 28.6068 10.8532C28.1695 8.87222 28.597 6.91673 29.6196 5.20098C29.8189 4.90748 30.0325 4.63758 30.2655 4.37056C30.3368 4.28124 30.408 4.19191 30.4814 4.09988C31.2209 3.21405 32.2502 2.65635 33.3104 2.24837C33.4131 2.20829 33.5157 2.16821 33.6215 2.12691C35.8991 1.38494 38.5384 1.8757 40.4267 3.32677ZM32.5348 6.40625C31.6266 7.5103 31.4221 8.70041 31.5573 10.0912C31.7732 11.2353 32.4899 12.2455 33.4315 12.9199C34.4944 13.5975 35.5759 13.7359 36.8166 13.5975C37.9835 13.3276 38.8769 12.6071 39.5847 11.6598C40.2512 10.5552 40.4061 9.3687 40.1704 8.10854C39.8038 6.89549 38.9759 5.97118 37.9073 5.32641C37.2613 5.01506 36.6742 4.87445 35.9574 4.88381C35.8428 4.88496 35.8428 4.88496 35.7258 4.88613C34.4375 4.92139 33.4153 5.47585 32.5348 6.40625ZM5.96126 19.693C5.05308 20.7971 4.84859 21.9872 4.98378 23.378C5.19973 24.522 5.91636 25.5322 6.858 26.2066C7.97285 26.9173 9.1793 27.0676 10.4716 26.8237C11.6732 26.4635 12.6539 25.6248 13.2613 24.5382C13.7805 23.5014 13.8463 22.2296 13.5129 21.1174C13.0566 19.9557 12.1945 19.028 11.0735 18.4877C10.5062 18.2542 9.99588 18.1626 9.38387 18.1706C9.26925 18.1717 9.26925 18.1717 9.15231 18.1729C7.86402 18.2081 6.84182 18.7626 5.96126 19.693ZM32.5348 32.9798C31.6266 34.0838 31.4221 35.2739 31.5573 36.6648C31.7732 37.8088 32.4899 38.819 33.4315 39.4934C34.5464 40.2041 35.7528 40.3544 37.0451 40.1104C38.2467 39.7503 39.2274 38.9116 39.8348 37.825C40.354 36.7881 40.4198 35.5163 40.0864 34.4042C39.6301 33.2424 38.768 32.3148 37.6471 31.7745C37.0797 31.5409 36.5694 31.4493 35.9574 31.4573C35.8428 31.4585 35.8428 31.4585 35.7258 31.4596C34.4375 31.4949 33.4153 32.0494 32.5348 32.9798Z" fill="black"/>
</svg>
