<svg width="46" height="53" viewBox="0 0 46 53" fill="none" xmlns="http://www.w3.org/2000/svg">
<path d="M9.52935 6.31345C9.89665 6.4691 9.98595 6.70264 10.1773 7.04715C10.2525 7.18054 10.3277 7.31393 10.4051 7.45136C10.4859 7.59809 10.5666 7.74482 10.6474 7.89155C10.732 8.04269 10.8169 8.19374 10.9019 8.34469C11.077 8.6558 11.2515 8.96726 11.4255 9.27896C11.8031 9.95358 12.1925 10.6214 12.5817 11.2895C12.7285 11.5423 12.8753 11.795 13.022 12.0478C13.0948 12.1732 13.1676 12.2985 13.2426 12.4276C13.4748 12.828 13.7065 13.2286 13.938 13.6293C14.0935 13.8981 14.249 14.1669 14.4044 14.4357C14.4786 14.5643 14.5528 14.6928 14.6293 14.8252C14.948 15.3757 15.2683 15.9243 15.6027 16.4655C15.6537 16.5483 15.7048 16.631 15.7573 16.7162C15.8879 16.9262 16.02 17.1352 16.1523 17.3442C16.3239 17.6708 16.3239 17.6708 16.3239 18.1446C16.1365 18.3389 16.1365 18.3389 15.8849 18.5296C14.9495 19.3025 14.5468 20.2723 14.3375 21.4463C14.3225 21.609 14.3102 21.7719 14.3003 21.9349C14.294 22.0253 14.2877 22.1157 14.2812 22.2088C14.1305 26.4845 16.5164 30.8306 19.2551 33.9499C20.7545 35.5462 22.5525 36.9483 24.8251 37.1091C25.6355 37.0749 26.4127 36.8124 27.1561 36.5039C28.0333 37.8816 28.8413 39.2995 29.6572 40.7136C30.0328 41.3639 30.4098 42.0135 30.7866 42.6631C30.9337 42.9168 31.0808 43.1705 31.2279 43.4243C31.5011 43.8955 31.7744 44.3668 32.0477 44.838C32.1706 45.0499 32.2935 45.2618 32.4164 45.4737C32.5706 45.7396 32.7248 46.0055 32.879 46.2714C33.0152 46.5063 33.151 46.7414 33.2861 46.9769C33.3966 47.1659 33.5105 47.353 33.6293 47.5369C33.7685 47.755 33.7685 47.755 33.9411 48.1117C33.8412 48.4425 33.7367 48.5635 33.4454 48.7532C33.3403 48.8031 33.2352 48.8529 33.1269 48.9043C33.01 48.9599 32.8932 49.0156 32.7728 49.0729C32.5888 49.1578 32.5888 49.1578 32.401 49.2444C32.2825 49.3014 32.164 49.3584 32.0418 49.4172C30.85 49.9767 29.7438 50.3114 28.4208 50.2956C28.312 50.2945 28.2032 50.2934 28.0911 50.2923C24.0863 50.1909 20.5527 46.4811 17.9289 43.7976C15.0242 40.7245 12.6107 37.1839 10.4911 33.5427C10.4409 33.4566 10.3907 33.3705 10.3389 33.2818C6.89818 27.3469 2.54991 18.5448 4.24924 11.5264C4.89054 9.40449 6.32985 8.1935 8.11044 7.0106C8.22751 6.93242 8.34459 6.85425 8.46522 6.7737C9.21902 6.29507 9.21902 6.29507 9.52935 6.31345Z" fill="#1A1B1E"/>
<path d="M32.9962 31.8845C33.1051 31.8955 33.1051 31.8955 33.2161 31.9067C34.1462 32.2665 34.51 33.1078 34.9528 33.9351C35.1003 34.2039 35.248 34.4725 35.396 34.7411C35.5081 34.9455 35.5081 34.9455 35.6225 35.1541C35.9617 35.7656 36.3157 36.3682 36.6714 36.9703C36.8098 37.2053 36.9482 37.4404 37.0866 37.6754C37.1908 37.8523 37.1908 37.8523 37.2971 38.0328C37.7492 38.8029 38.1975 39.5752 38.6431 40.349C38.9986 40.966 39.3575 41.5801 39.7277 42.1884C39.7946 42.3 39.8615 42.4116 39.9304 42.5266C40.0547 42.7337 40.1808 42.9399 40.309 43.1447C40.6711 43.7537 40.9089 44.3205 40.726 45.0321C40.4172 45.5895 40.1141 45.8743 39.5599 46.1842C39.4261 46.2599 39.2923 46.3356 39.1544 46.4137C39.0137 46.4911 38.8729 46.5685 38.7322 46.6459C38.5932 46.7241 38.4544 46.8025 38.3156 46.881C36.1505 48.0959 36.1505 48.0959 35.3695 47.9933C34.3425 47.5945 33.7921 46.2601 33.2877 45.3643C33.079 44.9937 32.8681 44.6244 32.6577 44.2548C32.6152 44.18 32.5727 44.1052 32.5289 44.0281C32.1332 43.3324 31.7287 42.642 31.3223 41.9525C30.7014 40.8971 30.0873 39.8381 29.4772 38.7766C29.4375 38.7076 29.3978 38.6386 29.3568 38.5674C29.0979 38.1173 28.8409 37.6661 28.5844 37.2146C28.5146 37.0935 28.4447 36.9724 28.3727 36.8476C28.3079 36.7333 28.243 36.6189 28.1762 36.5011C28.1188 36.4009 28.0615 36.3007 28.0024 36.1974C27.7969 35.753 27.7383 35.3187 27.8702 34.8456C28.2 34.27 28.5142 33.9856 29.0927 33.6635C29.164 33.6233 29.2353 33.5831 29.3088 33.5416C29.5352 33.4146 29.7629 33.2899 29.9906 33.1652C30.142 33.0803 30.2933 32.9952 30.4446 32.91C32.4195 31.8065 32.4195 31.8065 32.9962 31.8845Z" fill="#1A1B1E"/>
<path d="M15.9669 1.9174C16.7935 2.31082 17.1733 3.20766 17.5813 3.97541C17.7277 4.24313 17.8744 4.51071 18.0212 4.77817C18.0952 4.91374 18.1692 5.0493 18.2455 5.18897C18.5833 5.80029 18.937 6.40191 19.2925 7.00321C19.4308 7.23792 19.569 7.47266 19.7072 7.70742C19.8114 7.88429 19.8114 7.88429 19.9176 8.06473C20.3729 8.84048 20.8233 9.61901 21.2729 10.398C21.6169 10.9937 21.9629 11.5877 22.3181 12.1769C22.3791 12.279 22.4402 12.3811 22.5031 12.4863C22.6152 12.6735 22.7284 12.86 22.8429 13.0458C23.1505 13.5615 23.3193 13.9782 23.3471 14.5912C22.9947 15.7877 21.8767 16.2806 20.8568 16.867C20.6321 16.9969 20.4096 17.1299 20.1869 17.263C19.4072 17.7184 18.8011 18.0431 17.8715 17.9077C16.9577 17.5238 16.5566 16.5583 16.1008 15.7387C15.5543 14.766 15.0005 13.7983 14.4344 12.8367C13.7671 11.7027 13.1035 10.5666 12.4466 9.42664C12.104 8.83285 11.7589 8.24149 11.4013 7.65652C11.3402 7.55549 11.2792 7.45446 11.2163 7.35037C11.1046 7.16602 10.9915 6.98252 10.8765 6.80018C10.5235 6.21377 10.3621 5.68558 10.3723 4.99702C10.5822 4.23605 11.1694 3.97581 11.8007 3.57566C11.911 3.50543 12.0212 3.4352 12.1348 3.36285C12.4922 3.13847 12.8528 2.91992 13.2142 2.70211C13.3949 2.58828 13.3949 2.58828 13.5793 2.47216C14.3658 2.00216 15.0431 1.69827 15.9669 1.9174Z" fill="#1A1B1E"/>
</svg>
