<svg width="53" height="48" viewBox="0 0 53 48" fill="none" xmlns="http://www.w3.org/2000/svg">
<path d="M1.4404 1C1.74362 1.05464 2.04683 1.10928 2.35923 1.16557C2.35923 16.0271 2.35923 30.8887 2.35923 46.2006C18.7925 46.194 18.7925 46.194 35.2257 46.1857C38.3968 46.1849 38.3968 46.1849 39.8792 46.1848C40.9193 46.1846 41.9594 46.184 42.9995 46.1831C44.1977 46.1821 45.396 46.1816 46.5942 46.1818C47.2077 46.1819 47.8213 46.1817 48.4348 46.1809C49.0903 46.18 49.7458 46.1802 50.4014 46.1807C50.5947 46.1802 50.7881 46.1797 50.9873 46.1792C51.1622 46.1795 51.3371 46.1799 51.5173 46.1802C51.669 46.1802 51.8207 46.1801 51.977 46.18C52.3431 46.2006 52.3431 46.2006 52.7107 46.3662C52.7185 46.642 52.7181 46.9181 52.7107 47.194C52.4182 47.4575 52.1165 47.3808 51.7109 47.3813C51.5335 47.382 51.3562 47.3826 51.1735 47.3833C50.8778 47.383 50.8778 47.383 50.5761 47.3828C50.3684 47.3833 50.1608 47.3838 49.9469 47.3843C49.2453 47.3858 48.5437 47.386 47.8421 47.3863C47.3415 47.3869 46.8408 47.3878 46.3402 47.3887C44.976 47.391 43.6119 47.392 42.2477 47.3927C41.3965 47.3932 40.5454 47.3939 39.6942 47.3946C37.3394 47.3966 34.9845 47.3984 32.6297 47.3989C32.4789 47.3989 32.3281 47.399 32.1727 47.399C31.9459 47.3991 31.9459 47.3991 31.7145 47.3991C31.4081 47.3992 31.1017 47.3993 30.7953 47.3993C30.6433 47.3994 30.4914 47.3994 30.3348 47.3995C27.8712 47.4001 25.4076 47.403 22.944 47.4069C20.417 47.4108 17.8901 47.4128 15.3631 47.413C13.9433 47.4132 12.5236 47.4142 11.1038 47.4172C9.89502 47.4197 8.68623 47.4206 7.47742 47.4192C6.86027 47.4185 6.24318 47.419 5.62603 47.421C4.95789 47.4231 4.28983 47.4222 3.62169 47.4204C3.42536 47.4218 3.22903 47.4231 3.02676 47.4245C2.84846 47.4234 2.67016 47.4223 2.48646 47.4212C2.25498 47.4213 2.25498 47.4213 2.01882 47.4215C1.62417 47.3596 1.62417 47.3596 1.29893 47.1556C1.00696 46.7775 1.00398 46.5506 1.00401 46.0916C1.00269 45.9322 1.00136 45.7728 1 45.6086C1.00136 45.4331 1.00271 45.2576 1.00411 45.0768C1.00301 44.7976 1.00301 44.7976 1.00189 44.5128C1.00012 43.8859 1.0023 43.259 1.00446 42.6321C1.00432 42.1839 1.00335 41.7358 1.00242 41.2877C1.00068 40.195 1.0019 39.1023 1.00413 38.0096C1.00663 36.738 1.00633 35.4664 1.00594 34.1949C1.00535 31.9267 1.0075 29.6585 1.0111 27.3903C1.01459 25.1876 1.01589 22.9848 1.01487 20.7821C1.01375 18.3853 1.01378 15.9885 1.01587 13.5916C1.0161 13.3363 1.01632 13.0809 1.01654 12.8255C1.01665 12.6998 1.01676 12.5742 1.01687 12.4447C1.01759 11.5576 1.01751 10.6704 1.01717 9.78326C1.01678 8.70281 1.01773 7.62237 1.0204 6.54192C1.02174 5.99026 1.02228 5.43863 1.02164 4.88696C1.02106 4.29002 1.02271 3.69312 1.02497 3.09618C1.02427 2.92032 1.02358 2.74446 1.02286 2.56328C1.02394 2.40432 1.02501 2.24536 1.02611 2.08158C1.02627 1.94366 1.02643 1.80575 1.02659 1.66365C1.07288 1.33114 1.07288 1.33114 1.4404 1Z" fill="black" fill-opacity="0.93" stroke="black" stroke-width="0.4"/>
<path d="M41.8919 6.58075C42.0812 6.57938 42.2705 6.578 42.4655 6.57658C42.7716 6.57963 42.7716 6.57963 43.0838 6.58274C43.2934 6.58263 43.5029 6.58252 43.7188 6.58241C44.1619 6.58293 44.605 6.58508 45.0481 6.58873C45.7282 6.59394 46.4083 6.59326 47.0885 6.5918C47.5184 6.59303 47.9483 6.5946 48.3782 6.59654C48.6849 6.59624 48.6849 6.59624 48.9977 6.59593C49.2808 6.59909 49.2808 6.59909 49.5695 6.60231C49.736 6.60332 49.9026 6.60434 50.0741 6.60539C50.4774 6.66293 50.4774 6.66293 50.8581 7.10438C50.9066 7.71184 50.9066 7.71184 50.9077 8.50213C50.9088 8.71967 50.9088 8.71967 50.91 8.9416C50.9119 9.42981 50.9112 9.91795 50.9104 10.4062C50.9112 10.7553 50.9122 11.1044 50.9134 11.4535C50.9159 12.4034 50.916 13.3533 50.9155 14.3033C50.9153 15.0954 50.9163 15.8875 50.9172 16.6796C50.9193 18.5478 50.9194 20.4161 50.9182 22.2843C50.9171 24.2137 50.9194 26.143 50.9235 28.0724C50.9268 29.727 50.928 31.3817 50.9273 33.0363C50.927 34.0254 50.9275 35.0144 50.9301 36.0034C50.9325 36.9334 50.9322 37.8633 50.9297 38.7933C50.9292 39.135 50.9298 39.4768 50.9313 39.8186C50.9333 40.2843 50.9318 40.7498 50.9294 41.2155C50.9294 41.4763 50.9294 41.7372 50.9295 42.006C50.8581 42.6412 50.8581 42.6412 50.5938 43.0561C50.1792 43.3903 49.8985 43.3888 49.3955 43.3926C49.1249 43.3968 49.1249 43.3968 48.8487 43.4011C48.6542 43.4004 48.4597 43.3998 48.2593 43.3991C48.0591 43.4003 47.8589 43.4014 47.6526 43.4026C47.229 43.4041 46.8055 43.4038 46.3819 43.4019C45.7334 43.4 45.0852 43.4063 44.4368 43.4134C44.0255 43.4137 43.6141 43.4136 43.2028 43.4129C43.0086 43.4154 42.8145 43.4179 42.6145 43.4204C42.4334 43.4184 42.2524 43.4163 42.0659 43.4142C41.8275 43.4141 41.8275 43.4141 41.5843 43.4141C40.9774 43.2596 40.7732 42.9816 40.3883 42.4205C40.293 41.7656 40.293 41.7656 40.2929 40.9864C40.2918 40.8428 40.2908 40.6992 40.2897 40.5513C40.2871 40.0705 40.2899 39.5899 40.2928 39.1091C40.2921 38.7643 40.291 38.4195 40.2897 38.0747C40.287 37.1384 40.2891 36.2023 40.2923 35.266C40.2949 34.2868 40.2937 33.3077 40.293 32.3285C40.2925 30.6843 40.2951 29.0401 40.2995 27.3959C40.3045 25.4939 40.3049 23.5919 40.3026 21.6898C40.3006 19.8612 40.3018 18.0326 40.3044 16.204C40.3055 15.4252 40.3055 14.6464 40.3046 13.8677C40.3037 12.9511 40.3056 12.0346 40.3098 11.1181C40.3108 10.7813 40.3109 10.4445 40.31 10.1077C40.3088 9.64877 40.3112 9.19005 40.3145 8.73115C40.3149 8.4741 40.3154 8.21706 40.3159 7.95222C40.3883 7.32511 40.3883 7.32511 40.6517 6.9113C41.0775 6.56753 41.3754 6.58032 41.8919 6.58075ZM41.8919 7.95222C41.8919 19.0967 41.7208 30.5238 41.7208 42.006C44.3592 42.006 46.9976 42.006 49.716 42.006C49.7202 37.6354 49.7238 33.0171 49.7258 28.6465C49.7268 26.6173 49.7281 24.5881 49.7303 22.5589C49.7322 20.7909 49.7334 19.0229 49.7339 17.2549C49.7341 16.3182 49.7347 15.3815 49.7361 14.4447C49.7374 13.5641 49.7378 12.6834 49.7375 11.8028C49.7375 11.4786 49.7379 11.1545 49.7386 10.8303C49.7396 10.3896 49.7393 9.94893 49.7388 9.50825C49.739 9.26105 49.7392 9.01384 49.7394 8.75914C49.7394 8.2513 49.7698 8.18601 49.5256 7.95222C46.95 7.95222 44.5455 7.95222 41.8919 7.95222Z" fill="black" fill-opacity="0.93" stroke="black" stroke-width="0.5"/>
<path d="M17.344 14.7967C17.5878 14.7918 17.5878 14.7918 17.8365 14.7868C18.0108 14.7875 18.1851 14.7883 18.3647 14.7891C18.5448 14.7877 18.7249 14.7864 18.9105 14.785C19.2911 14.7833 19.6716 14.7836 20.0521 14.7858C20.6347 14.788 21.217 14.7806 21.7996 14.7724C22.1694 14.772 22.5391 14.7722 22.9089 14.7729C23.0832 14.77 23.2575 14.7671 23.4371 14.7641C23.6809 14.7678 23.6809 14.7678 23.9297 14.7715C24.1436 14.7715 24.1436 14.7715 24.3618 14.7716C24.9427 14.9633 25.1207 15.2017 25.4548 15.9342C25.5588 16.7828 25.5505 17.621 25.5455 18.4813C25.5467 18.7397 25.5479 18.9981 25.5492 19.2643C25.5523 20.1188 25.5502 20.973 25.5479 21.8274C25.5483 22.4206 25.549 23.0137 25.5499 23.6068C25.5509 24.8499 25.5494 26.0929 25.5461 27.3359C25.5422 28.9313 25.5445 30.5264 25.5487 32.1217C25.5512 33.3464 25.5504 34.571 25.5486 35.7957C25.5481 36.384 25.5487 36.9723 25.5503 37.5607C25.5521 38.382 25.5494 39.203 25.5455 40.0242C25.5469 40.2686 25.5483 40.5129 25.5498 40.7647C25.5353 42.395 25.5353 42.395 25.1514 43.0762C24.7079 43.3402 24.3889 43.411 23.9108 43.4131C23.6609 43.4167 23.6609 43.4167 23.4059 43.4205C23.2272 43.4189 23.0485 43.4173 22.8644 43.4157C22.68 43.4165 22.4956 43.4172 22.3056 43.418C21.9161 43.4185 21.5266 43.4171 21.1371 43.4138C20.5399 43.4097 19.9429 43.4138 19.3458 43.4187C18.9674 43.4182 18.5891 43.4172 18.2107 43.4157C18.0317 43.4173 17.8527 43.4188 17.6682 43.4205C17.5021 43.418 17.3361 43.4156 17.165 43.4131C16.9458 43.4121 16.9458 43.4121 16.7222 43.4112C16.2466 43.2873 16.1172 43.09 15.8189 42.5379C15.7522 42.0252 15.7522 42.0252 15.7509 41.4302C15.7492 41.2042 15.7475 40.9782 15.7457 40.7454C15.7465 40.4983 15.7473 40.2511 15.7481 39.9964C15.7469 39.7355 15.7457 39.4747 15.7444 39.2059C15.7412 38.3417 15.7419 37.4776 15.7429 36.6134C15.7421 36.0141 15.7412 35.4149 15.7401 34.8156C15.7385 33.5588 15.739 32.3021 15.7407 31.0454C15.7427 29.4324 15.7392 27.8195 15.7341 26.2065C15.7309 24.9688 15.7309 23.7311 15.7319 22.4934C15.7319 21.8986 15.7309 21.3037 15.7287 20.7089C15.7261 19.8783 15.7279 19.048 15.731 18.2174C15.7293 17.9703 15.7276 17.7231 15.7258 17.4684C15.7384 15.8186 15.7384 15.8186 16.1232 15.1362C16.5597 14.8773 16.8739 14.8013 17.344 14.7967ZM17.0453 15.9342C17.0453 24.1168 17.0453 33.7257 17.0453 42.1562C19.4157 42.1562 21.7861 42.1562 24.2284 42.1562C24.2284 33.9736 24.2284 24.3647 24.2284 15.9342C21.858 15.9342 19.4875 15.9342 17.0453 15.9342Z" fill="black" fill-opacity="0.93" stroke="black" stroke-width="0.5"/>
<path d="M28.4273 20.5862C28.8083 20.4993 28.8083 20.4993 29.2863 20.4998C29.465 20.4983 29.6437 20.4969 29.8278 20.4954C30.1181 20.4986 30.1181 20.4986 30.4143 20.5019C30.6124 20.5018 30.8104 20.5016 31.0145 20.5015C31.4338 20.5021 31.8531 20.5043 32.2724 20.5082C32.9161 20.5136 33.5596 20.5129 34.2033 20.5114C34.6099 20.5127 35.0165 20.5143 35.4232 20.5164C35.6167 20.5162 35.8103 20.5159 36.0097 20.5157C36.1884 20.5179 36.3671 20.5202 36.5512 20.5224C36.7089 20.5235 36.8666 20.5246 37.0292 20.5257C37.4102 20.5862 37.4102 20.5862 37.7625 21.0502C37.7984 21.7315 37.8123 22.3909 37.8108 23.0726C37.8117 23.282 37.8126 23.4914 37.8136 23.7071C37.816 24.4018 37.8158 25.0964 37.8154 25.7911C37.8161 26.2726 37.8169 26.754 37.8177 27.2354C37.819 28.2456 37.819 29.2557 37.8181 30.2659C37.817 31.5621 37.82 32.8583 37.8241 34.1545C37.8267 35.1491 37.8269 36.1437 37.8263 37.1383C37.8264 37.6163 37.8273 38.0942 37.8291 38.5722C37.8313 39.24 37.8301 39.9076 37.828 40.5753C37.83 40.8731 37.83 40.8731 37.8321 41.1769C37.8229 42.5289 37.8229 42.5289 37.5184 43.0264C37.1316 43.4309 36.8806 43.412 36.3902 43.4138C36.2191 43.416 36.0481 43.4182 35.8719 43.4205C35.6875 43.419 35.5031 43.4176 35.3131 43.4162C35.1235 43.4169 34.9339 43.4175 34.7386 43.4182C34.3377 43.4187 33.9368 43.4174 33.5358 43.4145C32.9211 43.4108 32.3067 43.4145 31.692 43.4189C31.3028 43.4184 30.9136 43.4176 30.5244 43.4162C30.34 43.4176 30.1556 43.419 29.9656 43.4205C29.7091 43.4172 29.7091 43.4172 29.4473 43.4138C29.2215 43.413 29.2215 43.413 28.9911 43.4121C28.5087 43.3021 28.3793 43.1239 28.075 42.6277C28.0237 41.9357 28.0047 41.2924 28.0095 40.6003C28.0088 40.3931 28.0082 40.1859 28.0075 39.9725C28.0061 39.2866 28.0085 38.6008 28.011 37.9149C28.0111 37.439 28.011 36.963 28.0108 36.4871C28.0108 35.4893 28.0126 34.4915 28.0158 33.4936C28.0198 32.2133 28.0199 30.933 28.0187 29.6526C28.0181 28.6698 28.0193 27.6869 28.021 26.7041C28.0217 26.2319 28.0219 25.7598 28.0216 25.2876C28.0216 24.6283 28.0238 23.969 28.0267 23.3096C28.026 23.0156 28.026 23.0156 28.0253 22.7157C28.0316 21.8096 28.0371 21.3573 28.4273 20.5862ZM29.308 21.769C29.308 28.2771 29.308 35.3279 29.308 42.0332C31.6911 42.0332 34.0742 42.0332 36.5295 42.0332C36.5295 35.5251 36.5295 28.4743 36.5295 21.769C34.1464 21.769 31.7633 21.769 29.308 21.769Z" fill="black" fill-opacity="0.93" stroke="black" stroke-opacity="0.93" stroke-width="0.5"/>
<path d="M6.26678 31.1689C6.47476 31.1644 6.47476 31.1644 6.68694 31.1598C6.83642 31.1605 6.9859 31.1612 7.13991 31.1619C7.29375 31.1607 7.44758 31.1595 7.60608 31.1582C7.93156 31.1567 8.25703 31.157 8.58251 31.159C9.08082 31.161 9.57888 31.1542 10.0772 31.1467C10.3932 31.1464 10.7093 31.1465 11.0254 31.1472C11.1746 31.1446 11.3238 31.1419 11.4775 31.1392C12.4778 31.1551 12.4778 31.1551 12.9893 31.6009C13.2984 32.544 13.2717 33.4333 13.2658 34.4848C13.2664 34.7063 13.267 34.9278 13.2675 35.1561C13.2679 35.6239 13.2669 36.0917 13.2644 36.5595C13.2613 37.2755 13.2644 37.9909 13.2681 38.7068C13.2677 39.1616 13.267 39.6164 13.2658 40.0711C13.267 40.2851 13.2682 40.4991 13.2694 40.7196C13.2615 41.5824 13.2415 42.1857 12.9893 42.9551C12.3593 43.5042 11.7299 43.4213 11.0254 43.4088C10.7944 43.4093 10.7944 43.4093 10.5588 43.4098C10.2336 43.4094 9.90837 43.4067 9.58316 43.4018C9.08456 43.395 8.58618 43.3969 8.08757 43.4C7.77168 43.3985 7.4558 43.3966 7.13991 43.394C6.91569 43.3951 6.91569 43.3951 6.68694 43.3961C6.54828 43.3931 6.40963 43.3901 6.26678 43.3871C6.14479 43.3858 6.0228 43.3845 5.89711 43.3832C5.50173 43.2686 5.37298 43.1118 5.14288 42.5843C5.08716 42.101 5.08716 42.101 5.0861 41.541C5.08472 41.3308 5.08333 41.1207 5.08191 40.9042C5.08324 40.5648 5.08324 40.5648 5.0846 40.2185C5.08418 39.9857 5.08376 39.7528 5.08333 39.5129C5.08303 39.0204 5.08384 38.528 5.08567 38.0356C5.08802 37.2809 5.08569 36.5265 5.08289 35.7718C5.08318 35.2937 5.08374 34.8155 5.0846 34.3374C5.08371 34.1112 5.08282 33.8849 5.08191 33.6518C5.08329 33.4416 5.08468 33.2315 5.0861 33.015C5.08645 32.8302 5.0868 32.6453 5.08716 32.4549C5.21394 31.3555 5.63204 31.1755 6.26678 31.1689ZM6.26678 32.455C6.26678 35.3346 6.26678 39.1378 6.26678 42.1046C8.29419 42.1046 9.95246 42.1046 12.0413 42.1046C12.0413 39.2251 12.0413 35.4218 12.0413 32.455C10.0139 32.455 8.35562 32.455 6.26678 32.455Z" fill="black" fill-opacity="0.93" stroke="black" stroke-width="0.5"/>
</svg>
