<svg width="61" height="39" viewBox="0 0 61 39" fill="none" xmlns="http://www.w3.org/2000/svg">
<path d="M15.679 2.74647C15.9286 2.74438 16.1782 2.74229 16.4355 2.74013C16.845 2.74123 16.845 2.74123 17.2628 2.74235C17.5511 2.74084 17.8393 2.73933 18.1362 2.73777C19.0913 2.73366 20.0463 2.73395 21.0013 2.73463C21.6642 2.73348 22.3271 2.7322 22.99 2.7308C24.3805 2.72859 25.7711 2.72868 27.1616 2.73023C28.9442 2.73194 30.7266 2.72695 32.5092 2.72009C33.8786 2.71574 35.2481 2.71548 36.6175 2.7164C37.2747 2.71625 37.9319 2.7147 38.5891 2.71173C39.5082 2.70809 40.4271 2.71008 41.3462 2.71351C41.754 2.71012 41.754 2.71012 42.17 2.70667C43.5691 2.7182 44.5489 2.75896 45.6753 3.70947C46.1399 4.65883 45.981 5.61029 45.9643 6.66284C46.2923 6.65256 46.6202 6.64228 46.9581 6.63169C52.3546 6.51126 52.3546 6.51126 54.533 8.55137C55.1623 9.3107 55.5634 10.1259 55.9574 11.0327C56.2512 11.704 56.5602 12.3685 56.8794 13.0276C58.3352 16.1584 58.6917 18.8985 58.6112 22.3445C58.5935 23.1398 58.5934 23.9337 58.5955 24.7291C58.591 25.2398 58.5856 25.7505 58.5791 26.2612C58.5787 26.4962 58.5783 26.7312 58.5779 26.9734C58.5349 28.445 58.3063 29.2136 57.2387 30.2897C56.1795 31.1013 55.0398 30.9237 53.7697 30.8804C53.7577 31.1728 53.7458 31.4652 53.7335 31.7664C53.4824 33.5443 52.3544 34.8254 51.0053 35.9011C49.2325 36.428 47.3145 36.5705 45.5465 35.9473C44.1241 35.1295 43.0952 33.9127 42.4953 32.3571C42.4953 31.8698 42.4953 31.3825 42.4953 30.8804C37.9162 30.8804 33.3371 30.8804 28.6192 30.8804C28.5238 31.6601 28.4284 32.4398 28.3301 33.2431C27.5757 34.6616 26.3631 35.7222 24.8611 36.1965C22.7963 36.4419 20.9649 36.4883 19.2487 35.1789C18.0123 33.9406 17.5906 32.6138 17.3448 30.8804C16.7965 30.8958 16.7965 30.8958 16.2371 30.9116C15.7571 30.9199 15.2772 30.9279 14.7973 30.9358C14.5564 30.9432 14.3154 30.9506 14.0672 30.9583C13.8353 30.9611 13.6033 30.964 13.3643 30.9669C13.1508 30.9716 12.9374 30.9762 12.7174 30.981C11.9686 30.8503 11.7134 30.6209 11.274 29.9944C11.3283 28.9238 11.3283 28.9238 11.5631 27.927C12.2594 27.5714 12.7081 27.5947 13.4851 27.5902C13.8853 27.5816 13.8853 27.5816 14.2936 27.5729C14.8559 27.5629 15.4183 27.5575 15.9807 27.5567C17.6311 27.5509 17.6311 27.5509 18.9371 26.6165C19.0794 26.3667 19.2218 26.117 19.3684 25.8597C20.8969 24.7667 22.4188 24.3864 24.2829 24.6783C26.8566 25.6522 26.8566 25.6522 27.557 26.7627C27.9943 27.3952 27.9943 27.3952 28.7004 27.4923C28.9586 27.496 29.2167 27.4996 29.4827 27.5033C29.7761 27.5099 30.0696 27.5165 30.3719 27.5232C30.689 27.5236 31.0061 27.524 31.3328 27.5244C31.6597 27.5277 31.9867 27.5309 32.3235 27.5342C33.0163 27.5389 33.7092 27.5404 34.402 27.5391C35.4581 27.5394 36.513 27.557 37.569 27.5758C38.2426 27.5782 38.9162 27.5795 39.5898 27.5798C39.9039 27.5868 40.2181 27.5937 40.5418 27.6009C42.1806 27.5808 43.1493 27.4398 44.4035 26.314C44.7323 25.9669 45.0601 25.6188 45.3862 25.269C46.6424 24.5122 48.0098 24.4796 49.4334 24.6783C50.8128 25.1597 51.9825 25.8663 52.9024 27.041C52.9024 27.236 52.9024 27.4309 52.9024 27.6317C53.9041 27.4855 53.9041 27.4855 54.926 27.3364C55.0214 24.9973 55.1168 22.6582 55.2151 20.2483C54.082 20.2637 54.082 20.2637 52.9261 20.2795C52.1923 20.2864 51.4584 20.2917 50.7246 20.297C50.2157 20.3014 49.7067 20.3075 49.1979 20.3151C48.4652 20.3259 47.7326 20.3309 46.9999 20.3348C46.7733 20.3394 46.5468 20.344 46.3135 20.3487C44.9874 20.3491 44.1234 20.2129 43.0735 19.3623C42.743 18.6871 42.7494 18.3158 42.7516 17.5659C42.7516 17.1935 42.7516 17.1935 42.7516 16.8135C42.7531 16.5452 42.7546 16.2769 42.7562 16.0005C42.7566 15.7261 42.757 15.4516 42.7574 15.1688C42.759 14.29 42.7627 13.4114 42.7663 12.5326C42.7678 11.9377 42.7691 11.3428 42.7703 10.7479C42.7735 9.28778 42.7785 7.82764 42.7844 6.3675C42.432 6.37012 42.0797 6.37275 41.7166 6.37545C38.3987 6.39938 35.0808 6.4171 31.7628 6.42871C30.0569 6.43488 28.3511 6.44325 26.6453 6.45662C24.9996 6.46944 23.3539 6.47652 21.7081 6.47958C21.0797 6.48177 20.4513 6.48604 19.8229 6.4924C18.9438 6.50096 18.065 6.50216 17.1859 6.50161C16.9252 6.50586 16.6644 6.51011 16.3957 6.51448C14.6412 6.50261 14.6412 6.50261 13.7039 5.82613C13.2976 5.18615 13.2976 5.18615 13.3157 4.26323C13.7365 2.94488 14.4238 2.74998 15.679 2.74647ZM45.9643 10.2069C45.9643 12.351 45.9643 14.4952 45.9643 16.7043C48.7309 16.7043 51.4974 16.7043 54.3478 16.7043C53.6521 14.5219 53.6521 14.5219 52.7759 12.4588C52.6066 12.099 52.6066 12.099 52.4338 11.732C51.9583 10.9697 51.6716 10.6218 50.8788 10.2069C50.0316 10.1031 49.2009 10.1236 48.3493 10.1515C47.1687 10.1789 47.1687 10.1789 45.9643 10.2069ZM21.2656 28.6838C20.6317 29.6941 20.6317 30.2925 20.8139 31.4711C21.521 32.4697 21.9393 32.8796 23.1266 33.1323C24.3044 32.8817 24.7293 32.4524 25.4393 31.4711C25.6802 30.5851 25.6802 30.5851 25.4393 29.6991C24.8793 28.807 24.8793 28.807 23.9938 28.2224C22.8402 28.0363 22.2544 28.0363 21.2656 28.6838ZM46.4341 28.5362C45.7236 29.4017 45.6753 30.0596 45.6753 31.1757C46.063 32.0646 46.063 32.0646 46.8316 32.6524C47.816 33.0211 47.816 33.0211 48.8552 32.9478C49.8697 32.3845 50.2171 32.017 50.5897 30.8989C50.5897 29.8253 50.3583 29.3598 49.7225 28.5177C48.6514 27.9706 47.5133 28.0429 46.4341 28.5362Z" fill="black"/>
<path d="M5.31141 21.308C5.66952 21.3037 5.66952 21.3037 6.03486 21.2993C6.29166 21.2996 6.54845 21.2999 6.81302 21.3002C7.07759 21.2989 7.34216 21.2976 7.61475 21.2963C8.17406 21.2946 8.73338 21.2944 9.2927 21.2957C10.1497 21.2967 11.0063 21.2896 11.8633 21.2821C12.4065 21.2814 12.9496 21.2812 13.4928 21.2815C13.7496 21.2787 14.0064 21.276 14.271 21.2731C14.6291 21.2759 14.6291 21.2759 14.9944 21.2788C15.2043 21.2786 15.4141 21.2784 15.6303 21.2782C16.3578 21.4246 16.6183 21.6651 17.0482 22.287C16.9205 24.2138 16.9205 24.2138 16.4736 24.6789C16.0798 24.7098 15.6845 24.7203 15.2897 24.7224C14.9128 24.7252 14.9128 24.7252 14.5284 24.7281C14.1186 24.7286 14.1186 24.7286 13.7004 24.7291C13.2822 24.7306 13.2822 24.7306 12.8555 24.7322C12.2645 24.7337 11.6735 24.7344 11.0825 24.7343C10.1758 24.735 9.26908 24.7404 8.36233 24.7461C7.78941 24.747 7.21648 24.7476 6.64356 24.7478C6.23459 24.7511 6.23459 24.7511 5.81736 24.7543C5.56524 24.7534 5.31312 24.7525 5.05336 24.7516C4.83093 24.752 4.6085 24.7524 4.37933 24.7528C3.83225 24.6789 3.83225 24.6789 3.25764 24.081C3.16786 23.0345 3.16786 23.0345 3.25764 21.9881C4.1372 21.3778 4.31992 21.3145 5.31141 21.308Z" fill="black"/>
<path d="M11.064 9.67752C11.3018 9.67473 11.5397 9.67194 11.7847 9.66907C12.0405 9.67086 12.2963 9.67265 12.5598 9.67449C12.8233 9.67365 13.0869 9.6728 13.3584 9.67193C13.9156 9.67133 14.4727 9.67296 15.0298 9.67665C15.8835 9.68138 16.7368 9.6767 17.5904 9.67104C18.1315 9.67162 18.6726 9.67276 19.2136 9.67449C19.4694 9.6727 19.7252 9.67091 19.9888 9.66907C20.3455 9.67325 20.3455 9.67325 20.7094 9.67752C21.0229 9.67857 21.0229 9.67857 21.3428 9.67965C22.0619 9.82548 22.3172 10.0795 22.7552 10.6764C22.8446 11.5793 22.8446 11.5793 22.7552 12.4453C22.0673 13.1539 21.9097 13.1101 20.971 13.1159C20.5957 13.1201 20.5957 13.1201 20.2128 13.1244C19.8067 13.124 19.8067 13.124 19.3925 13.1236C18.9765 13.1255 18.9765 13.1255 18.5521 13.1275C17.9651 13.1291 17.3781 13.1293 16.7911 13.128C15.8903 13.1271 14.9898 13.134 14.0891 13.1415C13.5197 13.1421 12.9503 13.1424 12.3809 13.1421C12.1102 13.1448 11.8396 13.1475 11.5607 13.1503C11.3105 13.1484 11.0602 13.1466 10.8024 13.1447C10.4714 13.145 10.4714 13.145 10.1336 13.1453C9.95445 13.1089 9.77525 13.0725 9.59062 13.0349C8.97388 12.0819 8.88415 11.7815 9.01825 10.6764C9.64083 9.84587 10.0593 9.6809 11.064 9.67752Z" fill="black"/>
<path d="M7.81458 15.4768C8.04756 15.4749 8.28055 15.473 8.5206 15.4711C8.89636 15.4729 8.89636 15.4729 9.27971 15.4748C9.667 15.4739 9.667 15.4739 10.0621 15.473C10.6079 15.4726 11.1537 15.4737 11.6995 15.4762C12.5356 15.4794 13.3715 15.4762 14.2076 15.4724C14.7377 15.4728 15.2678 15.4736 15.7979 15.4748C16.0484 15.4736 16.2989 15.4723 16.557 15.4711C16.79 15.473 17.023 15.4749 17.263 15.4768C17.5702 15.4775 17.5702 15.4775 17.8835 15.4782C18.4285 15.554 18.4285 15.554 19.2904 16.1507C19.3802 17.1948 19.3802 17.1948 19.2904 18.239C18.6059 18.9498 18.4615 18.9116 17.5302 18.9175C17.2857 18.9204 17.0412 18.9232 16.7893 18.9262C16.5247 18.9259 16.2601 18.9256 15.9876 18.9253C15.7162 18.9266 15.4449 18.9279 15.1653 18.9292C14.5907 18.9309 14.0162 18.9311 13.4416 18.9298C12.5613 18.9288 11.6812 18.9358 10.801 18.9434C10.2434 18.9441 9.68579 18.9443 9.1282 18.944C8.73224 18.9481 8.73224 18.9481 8.32827 18.9523C8.08285 18.9505 7.83744 18.9486 7.58458 18.9467C7.36876 18.9469 7.15294 18.9471 6.93058 18.9472C6.19853 18.8036 5.93762 18.559 5.49988 17.9406C5.53579 17.027 5.53579 17.027 5.78718 16.1507C6.66175 15.5452 6.83261 15.4791 7.81458 15.4768Z" fill="black"/>
</svg>
