<svg width="52" height="41" viewBox="0 0 52 41" fill="none" xmlns="http://www.w3.org/2000/svg">
<path d="M50.4341 37.957H48.6849V2.09848C48.6849 1.86652 48.5928 1.64406 48.4288 1.48004C48.2648 1.31602 48.0423 1.22388 47.8103 1.22388H19.8232C19.63 1.22448 19.4423 1.28906 19.2897 1.40754L3.54692 13.6519C3.44108 13.7334 3.35531 13.838 3.29618 13.9578C3.23706 14.0776 3.20615 14.2093 3.20583 14.3429V37.957H1.45663C1.22467 37.957 1.00221 38.0491 0.838195 38.2132C0.674176 38.3772 0.582031 38.5996 0.582031 38.8316C0.582031 39.0636 0.674176 39.286 0.838195 39.45C1.00221 39.6141 1.22467 39.7062 1.45663 39.7062H50.4341C50.6661 39.7062 50.8886 39.6141 51.0526 39.45C51.2166 39.286 51.3087 39.0636 51.3087 38.8316C51.3087 38.5996 51.2166 38.3772 51.0526 38.2132C50.8886 38.0491 50.6661 37.957 50.4341 37.957ZM9.32801 37.957V20.465H30.3184V37.957H9.32801ZM37.3152 37.957V29.211H42.5627V37.957H37.3152ZM44.3119 37.957V28.3364C44.3119 28.1045 44.2198 27.882 44.0558 27.718C43.8918 27.554 43.6693 27.4618 43.4373 27.4618H36.4406C36.2086 27.4618 35.9861 27.554 35.8221 27.718C35.6581 27.882 35.566 28.1045 35.566 28.3364V37.957H32.0676V19.5904C32.0676 19.3585 31.9754 19.136 31.8114 18.972C31.6474 18.808 31.4249 18.7158 31.193 18.7158H8.45342C8.22146 18.7158 7.999 18.808 7.83498 18.972C7.67096 19.136 7.57882 19.3585 7.57882 19.5904V37.957H4.95502V14.7714L20.1206 2.97307H46.9357V37.957H44.3119Z" fill="black" stroke="black"/>
<path d="M41.6882 23.9634H38.1898C37.9578 23.9634 37.7354 24.0556 37.5713 24.2196C37.4073 24.3836 37.3152 24.6061 37.3152 24.838C37.3152 25.07 37.4073 25.2925 37.5713 25.4565C37.7354 25.6205 37.9578 25.7126 38.1898 25.7126H41.6882C41.9201 25.7126 42.1426 25.6205 42.3066 25.4565C42.4706 25.2925 42.5628 25.07 42.5628 24.838C42.5628 24.6061 42.4706 24.3836 42.3066 24.2196C42.1426 24.0556 41.9201 23.9634 41.6882 23.9634Z" fill="black" stroke="black" stroke-width="0.3"/>
<path d="M21.5725 15.2174H18.0741C17.8421 15.2174 17.6196 15.3096 17.4556 15.4736C17.2916 15.6376 17.1995 15.8601 17.1995 16.092C17.1995 16.324 17.2916 16.5465 17.4556 16.7105C17.6196 16.8745 17.8421 16.9666 18.0741 16.9666H21.5725C21.8044 16.9666 22.0269 16.8745 22.1909 16.7105C22.3549 16.5465 22.4471 16.324 22.4471 16.092C22.4471 15.8601 22.3549 15.6376 22.1909 15.4736C22.0269 15.3096 21.8044 15.2174 21.5725 15.2174Z" fill="black" stroke="black" stroke-width="0.2"/>
<path d="M42.5628 9.96985H35.566C35.334 9.96985 35.1116 10.062 34.9476 10.226C34.7836 10.39 34.6914 10.6125 34.6914 10.8444V14.3428C34.6914 14.5748 34.7836 14.7973 34.9476 14.9613C35.1116 15.1253 35.334 15.2174 35.566 15.2174H42.5628C42.7947 15.2174 43.0172 15.1253 43.1812 14.9613C43.3452 14.7973 43.4374 14.5748 43.4374 14.3428V10.8444C43.4374 10.6125 43.3452 10.39 43.1812 10.226C43.0172 10.062 42.7947 9.96985 42.5628 9.96985ZM36.4406 11.719H38.1898V13.4682H36.4406V11.719ZM41.6882 13.4682H39.939V11.719H41.6882V13.4682Z" fill="black" stroke="black" stroke-width="0.1"/>
<path d="M25.9455 23.9634H13.7011C13.4692 23.9634 13.2467 24.0556 13.0827 24.2196C12.9187 24.3836 12.8265 24.6061 12.8265 24.838C12.8265 25.07 12.9187 25.2925 13.0827 25.4565C13.2467 25.6205 13.4692 25.7126 13.7011 25.7126H25.9455C26.1775 25.7126 26.3999 25.6205 26.5639 25.4565C26.728 25.2925 26.8201 25.07 26.8201 24.838C26.8201 24.6061 26.728 24.3836 26.5639 24.2196C26.3999 24.0556 26.1775 23.9634 25.9455 23.9634Z" fill="black"/>
<path d="M25.9455 28.3365H13.7011C13.4692 28.3365 13.2467 28.4286 13.0827 28.5926C12.9187 28.7566 12.8265 28.9791 12.8265 29.2111C12.8265 29.443 12.9187 29.6655 13.0827 29.8295C13.2467 29.9935 13.4692 30.0857 13.7011 30.0857H25.9455C26.1775 30.0857 26.3999 29.9935 26.5639 29.8295C26.728 29.6655 26.8201 29.443 26.8201 29.2111C26.8201 28.9791 26.728 28.7566 26.5639 28.5926C26.3999 28.4286 26.1775 28.3365 25.9455 28.3365Z" fill="black"/>
<path d="M25.9455 32.7094H13.7011C13.4692 32.7094 13.2467 32.8016 13.0827 32.9656C12.9187 33.1296 12.8265 33.3521 12.8265 33.584C12.8265 33.816 12.9187 34.0385 13.0827 34.2025C13.2467 34.3665 13.4692 34.4586 13.7011 34.4586H25.9455C26.1775 34.4586 26.3999 34.3665 26.5639 34.2025C26.728 34.0385 26.8201 33.816 26.8201 33.584C26.8201 33.3521 26.728 33.1296 26.5639 32.9656C26.3999 32.8016 26.1775 32.7094 25.9455 32.7094Z" fill="black"/>
</svg>
