<svg width="51" height="51" viewBox="0 0 51 51" fill="none" xmlns="http://www.w3.org/2000/svg">
<path d="M24.2697 25.7161C24.4682 25.7158 24.6667 25.7154 24.8712 25.7151C25.1825 25.7166 25.1825 25.7166 25.5 25.718C25.7075 25.7171 25.915 25.7161 26.1288 25.7151C26.4265 25.7156 26.4265 25.7156 26.7303 25.7161C26.9124 25.7164 27.0946 25.7167 27.2822 25.7169C27.7426 25.7492 27.7426 25.7492 28.241 25.9984C28.241 27.2318 28.241 28.4652 28.241 29.7361C27.8298 29.8183 27.4187 29.9005 26.9951 29.9852C27.324 31.9587 27.6529 33.9322 27.9918 35.9655C28.2947 35.3238 28.5976 34.682 28.9097 34.0208C29.2024 33.4006 29.4952 32.7805 29.7879 32.1603C29.9917 31.7286 30.1955 31.297 30.3992 30.8653C30.6917 30.2455 30.9843 29.6258 31.2769 29.006C31.3682 28.8124 31.4596 28.6187 31.5537 28.4192C32.1995 27.0518 32.1995 27.0518 32.477 26.4967C35.167 26.5982 37.24 28.0725 39.1494 29.8821C41.7697 32.7281 42.388 36.2373 42.6933 39.9524C42.7131 40.1628 42.7328 40.3732 42.7531 40.5899C43.2243 45.7358 43.2243 45.7358 41.9458 47.4278C40.867 48.4556 39.8666 49.2007 38.3575 49.2087C38.1269 49.2105 37.8964 49.2123 37.6589 49.2141C37.4052 49.2148 37.1515 49.2154 36.8901 49.2161C36.4901 49.2186 36.4901 49.2186 36.0821 49.2211C35.1964 49.226 34.3107 49.2289 33.4251 49.2314C33.1229 49.2324 32.8206 49.2334 32.5093 49.2345C30.9091 49.2397 29.309 49.2432 27.7088 49.2456C26.0564 49.2483 24.4042 49.2569 22.7519 49.2668C21.4812 49.2733 20.2106 49.2754 18.9399 49.2763C18.3309 49.2775 17.722 49.2804 17.113 49.285C16.2594 49.2911 15.4061 49.2909 14.5525 49.2891C14.3019 49.2923 14.0512 49.2955 13.7929 49.2988C12.0041 49.2856 10.587 48.9547 9.28875 47.6662C9.17536 47.4899 9.06198 47.3136 8.94515 47.1319C8.82727 46.9587 8.70939 46.7856 8.58793 46.6072C7.76749 44.6399 8.08289 42.4452 8.24434 40.3729C8.26297 40.0872 8.2816 39.8015 8.30079 39.5071C8.60637 35.4165 9.67855 31.8237 12.7919 28.9885C14.5037 27.7207 16.3337 26.4336 18.523 26.4967C19.0421 27.5646 19.5607 28.6328 20.0788 29.7012C20.2549 30.064 20.431 30.4267 20.6074 30.7894C20.862 31.3132 21.116 31.8371 21.37 32.3612C21.4479 32.5212 21.5258 32.6811 21.6061 32.8459C21.7183 33.0777 21.7183 33.0777 21.8327 33.3142C21.8974 33.4475 21.9622 33.5809 22.0289 33.7183C22.3708 34.4604 22.6863 35.2145 23.0082 35.9655C23.3371 33.992 23.666 32.0185 24.0049 29.9852C23.5938 29.903 23.1826 29.8208 22.759 29.7361C22.759 28.5026 22.759 27.2692 22.759 25.9984C23.3248 25.7155 23.6418 25.7171 24.2697 25.7161ZM31.2311 40.9491C31.226 41.2729 31.2208 41.5967 31.2155 41.9303C31.2126 42.1124 31.2098 42.2945 31.2068 42.4821C31.1799 42.9469 31.1799 42.9469 31.4803 43.1917C31.8453 43.2164 32.2114 43.2243 32.5773 43.2248C32.7991 43.2251 33.0208 43.2255 33.2494 43.2258C33.4827 43.2248 33.7161 43.2239 33.9565 43.2229C34.1889 43.2238 34.4213 43.2248 34.6607 43.2258C34.9939 43.2253 34.9939 43.2253 35.3338 43.2248C35.6407 43.2244 35.6407 43.2244 35.9538 43.224C36.4804 43.224 36.4804 43.224 36.9622 42.9425C36.9728 42.3612 36.9724 41.7796 36.9622 41.1983C36.709 40.8895 36.709 40.8895 36.1815 40.9208C35.839 40.9228 35.839 40.9228 35.4895 40.9248C35.1198 40.926 35.1198 40.926 34.7425 40.9272C34.3534 40.9303 34.3534 40.9303 33.9565 40.9335C33.566 40.9352 33.566 40.9352 33.1676 40.9369C32.5221 40.9399 31.8766 40.944 31.2311 40.9491Z" fill="black"/>
<path d="M31.4442 3.25589C34.1229 5.06698 35.8178 7.38872 36.5261 10.5492C37.0953 13.8819 36.3834 16.9621 34.4704 19.7689C32.4928 22.1682 30.0454 23.4942 26.995 24.0049C23.4877 24.2156 20.6645 23.523 17.9623 21.2017C15.5171 18.8831 14.3476 16.2487 14.2246 12.8853C14.2736 9.90751 15.3189 7.22995 17.2858 4.98749C21.0609 1.3837 26.9447 0.529083 31.4442 3.25589Z" fill="black"/>
</svg>
